<?xml version="1.0" encoding="UTF-8"?>
<svg xmlns="http://www.w3.org/2000/svg" viewBox="0 0 1600 560" role="img" aria-label="Burger Shop">
  <defs>
    <linearGradient id="bg" x1="0" y1="0" x2="1" y2="1">
      <stop offset="0%" stop-color="#1a120c"/>
      <stop offset="42%" stop-color="#3b1d12"/>
      <stop offset="100%" stop-color="#8a3414"/>
    </linearGradient>
    <linearGradient id="glow" x1="0.5" y1="0" x2="0.5" y2="1">
      <stop offset="0%" stop-color="#ffb347" stop-opacity="0.55"/>
      <stop offset="100%" stop-color="#ffb347" stop-opacity="0"/>
    </linearGradient>
    <linearGradient id="bun" x1="0.5" y1="0" x2="0.5" y2="1">
      <stop offset="0%" stop-color="#f6c56a"/>
      <stop offset="55%" stop-color="#e39b3a"/>
      <stop offset="100%" stop-color="#c27722"/>
    </linearGradient>
    <linearGradient id="patty" x1="0.5" y1="0" x2="0.5" y2="1">
      <stop offset="0%" stop-color="#6b3a24"/>
      <stop offset="100%" stop-color="#3d2114"/>
    </linearGradient>
    <linearGradient id="cheese" x1="0" y1="0" x2="1" y2="1">
      <stop offset="0%" stop-color="#ffd56a"/>
      <stop offset="100%" stop-color="#f0a202"/>
    </linearGradient>
    <filter id="soft" x="-20%" y="-20%" width="140%" height="140%">
      <feGaussianBlur stdDeviation="18"/>
    </filter>
  </defs>

  <rect width="1600" height="560" fill="url(#bg)"/>
  <circle cx="280" cy="280" r="210" fill="url(#glow)" filter="url(#soft)"/>
  <circle cx="1480" cy="-60" r="240" fill="#ffd089" opacity="0.08"/>
  <circle cx="1500" cy="540" r="180" fill="#000" opacity="0.18"/>

  <g transform="translate(270 286)">
    <ellipse cx="0" cy="118" rx="168" ry="28" fill="#000" opacity="0.28"/>

    <ellipse cx="0" cy="86" rx="150" ry="34" fill="url(#bun)"/>
    <ellipse cx="0" cy="74" rx="138" ry="18" fill="#d8892c"/>

    <rect x="-142" y="42" width="284" height="26" rx="10" fill="#6fbf4a"/>
    <path d="M-130 48c18 16 36 16 54 0s36-16 54 0 36 16 54 0 36-16 54 0 36 16 44 4" fill="none" stroke="#4e9a32" stroke-width="6" stroke-linecap="round"/>

    <rect x="-138" y="22" width="276" height="22" rx="8" fill="#e23d3d"/>
    <ellipse cx="-70" cy="33" rx="28" ry="8" fill="#c12f2f"/>
    <ellipse cx="48" cy="33" rx="34" ry="8" fill="#c12f2f"/>

    <path d="M-150 8h300l-18 22H-132z" fill="url(#cheese)"/>

    <rect x="-146" y="-18" width="292" height="32" rx="12" fill="url(#patty)"/>
    <rect x="-130" y="-10" width="50" height="8" rx="4" fill="#8a4d32" opacity="0.45"/>
    <rect x="20" y="-6" width="70" height="7" rx="3.5" fill="#8a4d32" opacity="0.35"/>

    <ellipse cx="0" cy="-58" rx="152" ry="58" fill="url(#bun)"/>
    <ellipse cx="0" cy="-78" rx="118" ry="28" fill="#ffd98a" opacity="0.35"/>
    <g fill="#f8efd8">
      <ellipse cx="-62" cy="-70" rx="7" ry="4" transform="rotate(-18 -62 -70)"/>
      <ellipse cx="-18" cy="-88" rx="6" ry="3.5" transform="rotate(12 -18 -88)"/>
      <ellipse cx="28" cy="-74" rx="7" ry="4" transform="rotate(-8 28 -74)"/>
      <ellipse cx="72" cy="-86" rx="6" ry="3.5" transform="rotate(20 72 -86)"/>
      <ellipse cx="8" cy="-52" rx="6.5" ry="3.5" transform="rotate(-24 8 -52)"/>
    </g>
  </g>

  <g fill="none" stroke="#f6e2c2" stroke-width="5" stroke-linecap="round" opacity="0.55">
    <path d="M188 148c8-22 4-40-6-56"/>
    <path d="M230 138c10-26 4-46-8-64"/>
    <path d="M272 146c8-24 2-42-10-58"/>
  </g>

  <g transform="translate(1490 118)">
    <circle r="28" fill="#f4c430"/>
    <circle r="22" fill="none" stroke="#b8860b" stroke-width="3"/>
    <text x="0" y="8" text-anchor="middle" font-family="Georgia, 'Times New Roman', serif" font-size="22" font-weight="700" fill="#7a4e00">$</text>
  </g>
  <g transform="translate(1420 198)">
    <circle r="22" fill="#f4c430"/>
    <circle r="17" fill="none" stroke="#b8860b" stroke-width="2.5"/>
    <text x="0" y="7" text-anchor="middle" font-family="Georgia, 'Times New Roman', serif" font-size="16" font-weight="700" fill="#7a4e00">$</text>
  </g>
  <g transform="translate(1528 250)">
    <circle r="16" fill="#f4c430"/>
    <circle r="12" fill="none" stroke="#b8860b" stroke-width="2"/>
  </g>

  <text x="560" y="228" font-family="Trebuchet MS, Segoe UI, Helvetica, Arial, sans-serif" font-size="86" font-weight="800" fill="#fff7ea" letter-spacing="4">BURGER SHOP</text>
  <text x="564" y="286" font-family="Trebuchet MS, Segoe UI, Helvetica, Arial, sans-serif" font-size="26" fill="#ffd7a8" letter-spacing="5">3D IDLE ARCADE  /  ANDROID</text>
  <rect x="564" y="318" width="92" height="8" rx="4" fill="#ffb347"/>
  <text x="564" y="372" font-family="Trebuchet MS, Segoe UI, Helvetica, Arial, sans-serif" font-size="22" fill="#f3e6d4">ORDER  |  COOK  |  SERVE  |  UPGRADE</text>
</svg>
